<svg xmlns="http://www.w3.org/2000/svg" fill="none" viewBox="0 0 482 212">
  <path fill="#24292E" fill-rule="evenodd" d="M98 8C43.855 8 0 52.9643 0 108.479c0 44.462 28.0525 82.016 67.0075 95.329 4.9.879 6.7375-2.135 6.7375-4.773 0-2.386-.1225-10.299-.1225-18.714C49 184.968 42.63 174.167 40.67 168.515c-1.1025-2.889-5.88-11.806-10.045-14.193-3.43-1.884-8.33-6.531-.1225-6.656 7.7175-.126 13.23 7.284 15.0675 10.299 8.82 15.197 22.9075 10.927 28.5425 8.289.8575-6.531 3.43-10.927 6.2475-13.439-21.805-2.512-44.59-11.178-44.59-49.611 0-10.9274 3.7975-19.9705 10.045-27.004-.98-2.512-4.41-12.8111.98-26.6269 0 0 8.2075-2.6376 26.95 10.2991 7.84-2.2608 16.17-3.3912 24.5-3.3912 8.33 0 16.66 1.1304 24.5 3.3912 18.742-13.0623 26.95-10.2991 26.95-10.2991 5.39 13.8158 1.96 24.1149.98 26.6269 6.247 7.0335 10.045 15.951 10.045 27.004 0 38.558-22.908 47.099-44.713 49.611 3.553 3.14 6.615 9.169 6.615 18.589 0 13.439-.122 24.24-.122 27.631 0 2.638 1.837 5.778 6.737 4.773C167.947 190.495 196 152.815 196 108.479 196 52.9643 152.145 8 98 8Z" clip-rule="evenodd"/>
  <path fill="#000" d="m280.689 141.5-5.359-5.29 22.063-22.064H240.25v-7.656h57.143L275.33 84.4957l5.359-5.3593 31.182 31.1816-31.182 31.182Z"/>
  <path stroke="#F60" stroke-width="25" d="M372 174V76c0-13.2608 5.268-25.9785 14.645-35.3553C396.021 31.2678 408.739 26 422 26h20"/>
  <path stroke="#D40000" stroke-width="25" d="M372 174v-30c0-13.261 5.268-25.979 14.645-35.355C396.021 99.2678 408.739 94 422 94h20"/>
  <path stroke="#F60" stroke-width="15" d="M456 44c9.941 0 18-8.0589 18-18s-8.059-18-18-18-18 8.0589-18 18 8.059 18 18 18Z"/>
  <path stroke="#D40000" stroke-width="15" d="M456 112c9.941 0 18-8.059 18-18 0-9.9411-8.059-18-18-18s-18 8.0589-18 18c0 9.941 8.059 18 18 18Zm-84 92c9.941 0 18-8.059 18-18s-8.059-18-18-18-18 8.059-18 18 8.059 18 18 18Z"/>
</svg>
